<svg width="32" height="32" viewBox="0 0 32 32" fill="none" xmlns="http://www.w3.org/2000/svg">
<path d="M18.5234 18.9976V19.0005C19.037 19.0038 19.5442 19.1203 20.0078 19.3414C20.472 19.5629 20.883 19.8839 21.209 20.2818C21.4941 20.63 21.7083 21.031 21.8418 21.4595C21.8609 21.5207 21.8788 21.5828 21.8945 21.6451C21.9887 22.0191 22.0208 22.406 21.9893 22.7886C21.9787 22.9161 21.9601 23.0434 21.9355 23.1695C21.8986 23.3589 21.8464 23.5454 21.7793 23.7252C21.757 23.7849 21.7325 23.8445 21.707 23.9029C21.656 24.0196 21.5987 24.1341 21.5352 24.2447C21.5032 24.3003 21.4696 24.3559 21.4346 24.4097C21.3997 24.4633 21.363 24.5162 21.3252 24.5679L21.2061 24.7203C20.9621 25.0176 20.6706 25.2736 20.3438 25.4761C20.2895 25.5097 20.2329 25.5422 20.1768 25.5728L20.0049 25.6597C19.5998 25.8525 19.1609 25.9657 18.7119 25.9927C18.1983 26.0235 17.683 25.9412 17.2051 25.7505V25.7496L4 21.0523V18.9966L18.5234 18.9976ZM17.9844 23.9039L17.9834 23.9048C18.126 23.9574 18.2755 23.989 18.4268 23.9966H18.5918C18.7566 23.9867 18.9183 23.9487 19.0703 23.8863L19.2197 23.816C19.3645 23.7369 19.4954 23.6343 19.6064 23.5132L19.7109 23.3863C19.8084 23.2531 19.8827 23.1037 19.9316 22.9468C19.9479 22.8946 19.9621 22.8406 19.9727 22.7867C20.0146 22.5707 20.0078 22.3477 19.9541 22.1343C19.9003 21.9209 19.8006 21.7207 19.6611 21.5504C19.5216 21.38 19.3452 21.2418 19.1465 21.147C18.948 21.0524 18.7306 21.0028 18.5107 21.0015V20.9976H9.81445L17.9844 23.9039ZM23.7715 8.99469C24.3827 8.95975 24.9938 9.06577 25.5576 9.30426C26.1214 9.54276 26.6237 9.90678 27.0244 10.3697C27.425 10.8326 27.7139 11.3819 27.8691 11.9742C28.0243 12.5664 28.0419 13.1867 27.9199 13.7867L27.8672 14.0103C27.7309 14.5266 27.4924 15.0113 27.165 15.4351C26.7908 15.9195 26.3103 16.3121 25.7607 16.5816C25.2128 16.8502 24.6102 16.9888 24 16.9888V16.9898H4V14.9898H23.9971V14.9879C24.2264 14.9882 24.4539 14.949 24.6689 14.8726L24.8799 14.7838C25.0858 14.6827 25.2724 14.5469 25.4316 14.3834L25.5811 14.2115C25.768 13.9695 25.897 13.6869 25.958 13.3873C26.0189 13.0877 26.0101 12.7777 25.9326 12.482C25.8551 12.1864 25.7107 11.9123 25.5107 11.6812C25.3106 11.45 25.0599 11.2672 24.7783 11.148C24.4967 11.0289 24.1911 10.9763 23.8857 10.9937C23.5807 11.0112 23.2837 11.0983 23.0176 11.2486L22.0322 9.50543C22.5652 9.20426 23.1604 9.02967 23.7715 8.99469Z" fill="url(#paint0_linear_3_4099)"/>
<path d="M6.52051 9.74316L7.41406 9.58594L7.25684 10.4795L8 11L7.25684 11.5205L7.41406 12.4141L6.52051 12.2568L6 13L5.47949 12.2568L4.58594 12.4141L4.74316 11.5205L4 11L4.74316 10.4795L4.58594 9.58594L5.47949 9.74316L6 9L6.52051 9.74316ZM12.6924 9.74316L13.5859 9.58594L13.4277 10.4795L14.1719 11L13.4277 11.5205L13.5859 12.4141L12.6924 12.2568L12.1719 13L11.6514 12.2568L10.7578 12.4141L10.915 11.5205L10.1719 11L10.915 10.4795L10.7578 9.58594L11.6514 9.74316L12.1719 9L12.6924 9.74316ZM18.6924 9.74316L19.5859 9.58594L19.4277 10.4795L20.1719 11L19.4277 11.5205L19.5859 12.4141L18.6924 12.2568L18.1719 13L17.6514 12.2568L16.7578 12.4141L16.915 11.5205L16.1719 11L16.915 10.4795L16.7578 9.58594L17.6514 9.74316L18.1719 9L18.6924 9.74316ZM9.52051 5.74316L10.4141 5.58594L10.2568 6.47949L11 7L10.2568 7.52051L10.4141 8.41406L9.52051 8.25684L9 9L8.47949 8.25684L7.58594 8.41406L7.74316 7.52051L7 7L7.74316 6.47949L7.58594 5.58594L8.47949 5.74316L9 5L9.52051 5.74316ZM15.5205 5.74316L16.4141 5.58594L16.2568 6.47949L17 7L16.2568 7.52051L16.4141 8.41406L15.5205 8.25684L15 9L14.4795 8.25684L13.5859 8.41406L13.7432 7.52051L13 7L13.7432 6.47949L13.5859 5.58594L14.4795 5.74316L15 5L15.5205 5.74316Z" fill="url(#paint1_linear_3_4099)"/>
<path fill-rule="evenodd" clip-rule="evenodd" d="M23.018 11.248L23.0172 11.2485L22.0336 9.50706L22.0325 9.50504L22.0345 9.50394C22.567 9.2034 23.1613 9.02897 23.7718 8.99407C23.8603 8.98901 23.9489 8.9869 24.0373 8.98772C24.559 8.99258 25.0757 9.09954 25.5579 9.3035C26.1218 9.54201 26.6234 9.90681 27.0241 10.3698C27.4248 10.8328 27.7139 11.3816 27.8692 11.9739C28.0245 12.5663 28.0417 13.1864 27.9197 13.7865C27.7976 14.3866 27.5395 14.9507 27.1651 15.4352C26.8451 15.8496 26.4474 16.1963 25.9952 16.4567C25.9185 16.5008 25.8403 16.5424 25.7606 16.5815C25.2108 16.851 24.6066 16.9908 23.9944 16.9899V16.9897H4V14.9897H23.9972L23.9972 14.9875C24.303 14.9879 24.6049 14.9181 24.8795 14.7834C25.1541 14.6488 25.3941 14.4529 25.5811 14.2108C25.7681 13.9688 25.897 13.687 25.958 13.3873C26.019 13.0875 26.0104 12.7777 25.9328 12.4818C25.8552 12.1859 25.7108 11.9118 25.5106 11.6805C25.3105 11.4492 25.0599 11.267 24.7782 11.1478C24.4966 11.0287 24.1913 10.9758 23.886 10.9933C23.581 11.0107 23.2841 11.0978 23.018 11.248ZM17.2058 25.7506L4 21.0525V18.998L18.5239 18.9981V19.0011C19.0376 19.0043 19.5443 19.1207 20.008 19.3419C20.1866 19.4271 20.357 19.527 20.5178 19.6404C20.7752 19.8219 21.0076 20.0379 21.2083 20.283C21.5344 20.6811 21.7686 21.1463 21.8943 21.6454C22.0201 22.1445 22.0342 22.6652 21.9357 23.1703C21.8372 23.6755 21.6286 24.1527 21.3246 24.568C21.0206 24.9833 20.6288 25.3264 20.1771 25.5728C19.8991 25.7245 19.6026 25.8373 19.2959 25.9088C19.1043 25.9534 18.9088 25.982 18.7113 25.9938C18.1977 26.0246 17.6836 25.9417 17.2057 25.751L17.2058 25.7506ZM9.8151 20.9982L18.5103 20.9983L18.5103 21.0016L18.5103 21.002L18.5112 21.002C18.7312 21.0034 18.9483 21.0532 19.1468 21.1479C19.3457 21.2428 19.5212 21.3804 19.6608 21.5509C19.8005 21.7214 19.9008 21.9206 19.9546 22.1344C20.0085 22.3481 20.0145 22.571 19.9723 22.7874C19.9302 23.0037 19.8408 23.2081 19.7106 23.3859C19.5805 23.5637 19.4127 23.7106 19.2193 23.8162C19.0258 23.9217 18.8115 23.9833 18.5916 23.9964C18.3847 24.0089 18.1776 23.9782 17.9835 23.9065L17.9842 23.9045L9.8151 20.9982Z" fill="url(#paint2_linear_3_4099)"/>
<path fill-rule="evenodd" clip-rule="evenodd" d="M11 7L10.2565 7.52045L10.4142 8.41421L9.52045 8.25648L9 9L8.47955 8.25648L7.58579 8.41421L7.74352 7.52045L7 7L7.74352 6.47955L7.58579 5.58579L8.47955 5.74352L9 5L9.52045 5.74352L10.4142 5.58579L10.2565 6.47955L11 7ZM14.1716 11L13.4281 11.5204L13.5858 12.4142L12.6921 12.2565L12.1716 13L11.6512 12.2565L10.7574 12.4142L10.9152 11.5204L10.1716 11L10.9152 10.4796L10.7574 9.58579L11.6512 9.74352L12.1716 9L12.6921 9.74352L13.5858 9.58579L13.4281 10.4796L14.1716 11ZM19.4281 11.5204L20.1716 11L19.4281 10.4796L19.5858 9.58579L18.6921 9.74352L18.1716 9L17.6512 9.74352L16.7574 9.58579L16.9152 10.4796L16.1716 11L16.9152 11.5204L16.7574 12.4142L17.6512 12.2565L18.1716 13L18.6921 12.2565L19.5858 12.4142L19.4281 11.5204ZM17 7L16.2565 7.52045L16.4142 8.41421L15.5204 8.25648L15 9L14.4796 8.25648L13.5858 8.41421L13.7435 7.52045L13 7L13.7435 6.47955L13.5858 5.58579L14.4796 5.74352L15 5L15.5204 5.74352L16.4142 5.58579L16.2565 6.47955L17 7ZM7.25648 11.5204L8 11L7.25648 10.4796L7.41421 9.58579L6.52045 9.74352L6 9L5.47955 9.74352L4.58579 9.58579L4.74352 10.4796L4 11L4.74352 11.5204L4.58579 12.4142L5.47955 12.2565L6 13L6.52045 12.2565L7.41421 12.4142L7.25648 11.5204Z" fill="url(#paint3_linear_3_4099)"/>
<defs>
<linearGradient id="paint0_linear_3_4099" x1="16" y1="8.98785" x2="16" y2="25.9997" gradientUnits="userSpaceOnUse">
<stop stop-color="#CED3EA"/>
<stop offset="1" stop-color="#7E83A9"/>
</linearGradient>
<linearGradient id="paint1_linear_3_4099" x1="12.0859" y1="5" x2="12.0859" y2="13" gradientUnits="userSpaceOnUse">
<stop stop-color="#B2D4F7"/>
<stop offset="1" stop-color="#D9E2F3"/>
</linearGradient>
<linearGradient id="paint2_linear_3_4099" x1="16" y1="8.98755" x2="16" y2="26.0001" gradientUnits="userSpaceOnUse">
<stop stop-color="#CED3EA"/>
<stop offset="1" stop-color="#7E83A9"/>
</linearGradient>
<linearGradient id="paint3_linear_3_4099" x1="12.0858" y1="5" x2="12.0858" y2="13" gradientUnits="userSpaceOnUse">
<stop stop-color="#B2D4F7"/>
<stop offset="1" stop-color="#D9E2F3"/>
</linearGradient>
</defs>
</svg>
