<svg width="32" height="32" viewBox="0 0 32 32" fill="none" xmlns="http://www.w3.org/2000/svg">
<path d="M19.6022 5.48657C20.5603 2.92462 23.3253 1.46227 26.0201 2.18481C26.3227 2.26596 26.6123 2.3722 26.8873 2.49927C25.8147 2.67347 24.8948 3.46389 24.611 4.58423C24.4707 5.13819 24.5063 5.69534 24.6813 6.19751C24.6839 6.20776 24.6853 6.21854 24.6881 6.22876L24.7614 6.44653C24.8455 6.6608 24.9632 6.8625 25.111 7.04028L25.2672 7.20923C25.3441 7.28386 25.4271 7.35205 25.5143 7.41431C25.8324 7.68599 26.2152 7.89344 26.6481 8.00317C28.0028 8.34597 29.3724 7.63986 29.9117 6.39868C30.0532 7.16154 30.032 7.96743 29.818 8.76685C29.3748 10.422 28.2049 11.6871 26.7448 12.3147C25.7182 11.4926 24.4168 10.9993 22.9996 10.9993C22.9327 10.9993 22.8658 11.002 22.7994 11.0042C22.7326 10.6739 22.6479 10.3501 22.5494 10.0325C22.8967 10.3053 23.3033 10.5144 23.7565 10.636C24.9093 10.9451 26.0827 10.6152 26.9039 9.8645C26.824 9.86698 26.7439 9.86855 26.6637 9.86646C26.1396 9.85268 25.6223 9.74135 25.1403 9.53833L24.9371 9.44556C24.3982 9.1839 23.9198 8.80973 23.5367 8.34888C23.2017 7.94555 22.9451 7.48197 22.7799 6.9856L22.7155 6.77173C22.5567 6.19365 22.523 5.58747 22.6168 4.99536C22.6373 4.86614 22.6647 4.73786 22.6969 4.61157C22.0698 5.05048 21.5874 5.70508 21.3737 6.50317C21.297 6.78965 21.26 7.07736 21.2584 7.3606C20.7857 6.66856 20.2291 6.03881 19.6022 5.48657Z" fill="url(#paint0_linear_3_3511)"/>
<path d="M13.5 22C13.5 22 16.0013 25.3172 16.002 27.4561L15.9893 27.7168C15.8614 29.0003 14.7971 30.0017 13.5029 30.002C12.2086 30.0018 11.1433 29.0004 11.0146 27.7168L11.002 27.4561C11.0012 25.0636 13.4829 22.0209 13.5 22ZM13.4746 25.7979C13.1764 26.4465 13.0018 27.0284 13.002 27.4561C13.0021 27.792 13.2599 28.0018 13.502 28.002C13.7441 28.0019 14.0021 27.792 14.002 27.4561C14.0019 27.2721 13.9385 26.9264 13.7432 26.417C13.6657 26.215 13.5742 26.0074 13.4746 25.7979ZM19.5 19C19.5 19 22.0013 22.3172 22.002 24.4561L21.9893 24.7168C21.8614 26.0003 20.7971 27.0017 19.5029 27.002C18.2086 27.0018 17.1433 26.0004 17.0146 24.7168L17.002 24.4561C17.0012 22.0636 19.4829 19.0209 19.5 19ZM19.4746 22.7979C19.1764 23.4465 19.0018 24.0284 19.002 24.4561C19.0021 24.792 19.2599 25.0018 19.502 25.002C19.7441 25.0019 20.0021 24.792 20.002 24.4561C20.0019 24.2721 19.9385 23.9264 19.7432 23.417C19.6657 23.215 19.5742 23.0074 19.4746 22.7979ZM13.1543 2.01465C17.774 2.25753 21.612 5.56524 22.8193 10.0156C22.9616 10.0063 23.1055 10 23.25 10L23.5967 10.0088C27.1635 10.1963 30 13.2548 30 17L29.9912 17.3604C29.823 20.7989 27.2617 23.5807 24 23.9551V21.9346C26.2204 21.5593 28 19.5486 28 17C28 14.1699 25.8057 12.0004 23.25 12C22.5274 12 21.8334 12.1736 21.21 12.4863C21.1745 11.8359 21.0677 11.2054 20.9053 10.5996C19.8939 6.7585 16.5189 4.00005 12.6084 4C7.92191 4 4 7.96046 4 13C4 17.0655 6.55292 20.427 10 21.5752V23.6631C5.40258 22.4577 2 18.1417 2 13C2 6.92487 6.7496 2 12.6084 2L13.1543 2.01465Z" fill="url(#paint1_linear_3_3511)"/>
<defs>
<linearGradient id="paint0_linear_3_3511" x1="24.8019" y1="2.00024" x2="24.8019" y2="12.3146" gradientUnits="userSpaceOnUse">
<stop stop-color="#F5BD52"/>
<stop offset="1" stop-color="#F5DA79"/>
</linearGradient>
<linearGradient id="paint1_linear_3_3511" x1="16" y1="2" x2="16" y2="30.0021" gradientUnits="userSpaceOnUse">
<stop stop-color="#95B6F6"/>
<stop offset="1" stop-color="#5193DE"/>
</linearGradient>
</defs>
</svg>
