<svg width="32" height="32" viewBox="0 0 32 32" fill="none" xmlns="http://www.w3.org/2000/svg">
<path d="M17.2549 22.7393C17.2599 22.781 17.7561 26.8718 16.6924 28.7148L16.5508 28.9346C15.798 29.9819 14.3756 30.3171 13.2549 29.6699C12.1341 29.0225 11.7126 27.6221 12.2431 26.4463L12.3623 26.2139C13.5563 24.145 17.218 22.7532 17.2549 22.7393ZM23.9736 21.1367C23.9736 21.1367 24.4803 25.2608 23.4111 27.1133L23.2695 27.332C22.5168 28.3796 21.0944 28.7146 19.9736 28.0674C18.8529 27.42 18.4314 26.0205 18.9619 24.8447L19.081 24.6123C20.277 22.5402 23.9483 21.1463 23.9736 21.1367ZM15.334 26.0146C14.7513 26.4272 14.3085 26.8444 14.0947 27.2148C13.9271 27.5057 14.0454 27.8164 14.2549 27.9375C14.4645 28.0584 14.793 28.0057 14.9609 27.7148C15.0529 27.5555 15.1712 27.2243 15.2568 26.6855C15.2908 26.4719 15.3153 26.2459 15.334 26.0146ZM22.0517 24.4131C21.4692 24.8256 21.0262 25.2419 20.8125 25.6123C20.6448 25.903 20.7634 26.2136 20.9726 26.335C21.1823 26.4561 21.5107 26.4033 21.6787 26.1123C21.7706 25.9529 21.889 25.6224 21.9746 25.084C22.0085 24.8703 22.0331 24.6444 22.0517 24.4131ZM13.1543 2.01465C15.7327 2.15021 18.067 3.24127 19.8369 4.95215C20.9582 2.72618 23.5193 1.51394 26.0205 2.18457C26.3229 2.2657 26.6127 2.37199 26.8877 2.49902C25.8151 2.67321 24.8952 3.46381 24.6113 4.58398C24.4711 5.13791 24.5066 5.69513 24.6816 6.19727C24.6843 6.20748 24.6857 6.21833 24.6884 6.22852L24.7617 6.44629C24.8459 6.66055 24.9636 6.86226 25.1113 7.04004L25.2675 7.20898C25.3444 7.28359 25.4275 7.35182 25.5146 7.41406C25.8328 7.68571 26.2155 7.89321 26.6484 8.00293C28.0031 8.34556 29.3728 7.63953 29.9121 6.39844C30.0535 7.1612 30.0322 7.96729 29.8183 8.7666C29.4801 10.0296 28.7171 11.0639 27.7265 11.7627C29.1205 13.0451 30 14.9157 30 17L29.9912 17.3604C29.8594 20.0554 28.2569 22.3468 26 23.3926V21.0713C27.1978 20.1769 28 18.71 28 17C28 14.1699 25.8057 12.0004 23.25 12C22.5274 12 21.8334 12.1736 21.2099 12.4863C21.1745 11.8359 21.0677 11.2054 20.9052 10.5996C19.8939 6.7585 16.5189 4.00005 12.6084 4C7.92188 4 3.99997 7.96046 3.99997 13C3.99997 16.2284 5.61107 19.0115 7.99997 20.5967V22.9072C4.45004 21.1287 1.99997 17.3622 1.99997 13C1.99997 6.92487 6.74957 2 12.6084 2L13.1543 2.01465ZM15.1162 16.0215C15.1162 16.0215 15.6226 20.1444 14.5537 21.9971L14.4121 22.2168C13.6594 23.2644 12.237 23.5995 11.1162 22.9521C9.99564 22.3048 9.57417 20.9052 10.1045 19.7295L10.2236 19.4971C11.4195 17.4249 15.0909 16.0311 15.1162 16.0215ZM21.7187 15.0039C21.7187 15.0039 22.2253 19.127 21.1562 20.9795L21.0156 21.1992C20.2629 22.2469 18.8396 22.5819 17.7187 21.9346C16.5982 21.2871 16.1774 19.8867 16.708 18.7109L16.8271 18.4795C18.0204 16.4119 21.6776 15.0195 21.7187 15.0039ZM13.1953 19.2979C12.6127 19.7104 12.1698 20.1267 11.956 20.4971C11.7881 20.788 11.9066 21.0985 12.1162 21.2197C12.3259 21.3408 12.6543 21.2881 12.8222 20.9971C12.9142 20.8376 13.0326 20.507 13.1181 19.9688C13.1521 19.7551 13.1767 19.5292 13.1953 19.2979ZM19.7978 18.2803C19.2152 18.6928 18.7723 19.1091 18.5586 19.4795C18.3908 19.7703 18.5093 20.0809 18.7187 20.2021C18.9284 20.3233 19.2568 20.2705 19.4248 19.9795C19.5167 19.8201 19.6351 19.4895 19.7207 18.9512C19.7546 18.7375 19.7792 18.5115 19.7978 18.2803ZM22.6972 4.61133C22.0702 5.05017 21.5878 5.70498 21.374 6.50293C21.3538 6.57838 21.3351 6.65398 21.3203 6.72949C21.9837 7.71918 22.4965 8.82589 22.8193 10.0156C22.9616 10.0063 23.1054 10 23.25 10L23.5966 10.0088C24.3829 10.0501 25.1334 10.2314 25.8261 10.5283C26.2229 10.3765 26.5898 10.1517 26.9043 9.86426C26.8244 9.86673 26.7441 9.86829 26.664 9.86621C26.14 9.85243 25.6225 9.74104 25.1406 9.53809L24.9375 9.44531C24.3986 9.18366 23.9201 8.80947 23.5371 8.34863C23.202 7.9453 22.9455 7.48173 22.7802 6.98535L22.7158 6.77148C22.5571 6.19345 22.5234 5.58718 22.6172 4.99512C22.6377 4.866 22.665 4.73752 22.6972 4.61133Z" fill="white"/>
<path fill-rule="evenodd" clip-rule="evenodd" d="M8 22.9107C4.44938 21.1323 2 17.3628 2 13C2 6.92487 6.74949 2 12.6083 2C15.4013 2 17.9422 3.11925 19.8366 4.9488C20.9587 2.72452 23.5197 1.51433 26.0199 2.18471C26.3224 2.26584 26.612 2.37127 26.8871 2.49833C25.8142 2.6724 24.8941 3.46383 24.6104 4.58462C24.4703 5.13844 24.505 5.69555 24.6798 6.19761L24.6881 6.22877C24.7697 6.52588 24.9137 6.80214 25.1106 7.03907C25.2227 7.17396 25.3504 7.29434 25.4908 7.39783C25.813 7.67873 26.2044 7.89018 26.647 8.00239C28.0002 8.34539 29.3727 7.64442 29.9137 6.4062C30.0538 7.16703 30.0311 7.9702 29.8176 8.76719C29.4797 10.0293 28.7198 11.0656 27.7306 11.7647C29.1228 13.047 30 14.9172 30 17C30 19.8501 28.3573 22.3025 26 23.3944V21.0745C27.1984 20.1797 28 18.7105 28 17C28 14.1696 25.8053 12 23.2493 12C22.5272 12 21.8339 12.1732 21.2108 12.4855C21.1791 11.9037 21.0937 11.3367 20.9599 10.7899L20.9569 10.7911C20.0091 6.85004 16.5839 4 12.6083 4C7.92179 4 4 7.96046 4 13C4 16.2291 5.61019 19.0152 8 20.6003V22.9107ZM25.8297 10.5296C26.2261 10.378 26.5919 10.1526 26.906 9.86539C26.8252 9.86793 26.7442 9.86815 26.6632 9.86602C26.0642 9.85027 25.4755 9.70672 24.9363 9.44498C24.3972 9.18323 23.9202 8.80932 23.5371 8.34824C23.154 7.88717 22.8737 7.34956 22.7149 6.77136C22.5561 6.19316 22.5225 5.5877 22.6164 4.99547C22.6368 4.86651 22.6632 4.73883 22.6954 4.61281C22.0689 5.05176 21.5872 5.70543 21.3737 6.50308C21.3539 6.5769 21.3367 6.6508 21.3221 6.72469C21.9865 7.71475 22.4979 8.8234 22.821 10.0139C22.9626 10.0047 23.1054 10 23.2493 10C24.1632 10 25.0347 10.1883 25.8297 10.5296ZM19.4251 19.9798C19.2571 20.2708 18.9287 20.3237 18.719 20.2026C18.5093 20.0815 18.3908 19.7705 18.5588 19.4794C18.7729 19.1084 19.2154 18.6896 19.7995 18.2764C19.7808 18.5091 19.7551 18.7356 19.721 18.9505C19.6353 19.4894 19.5171 19.8204 19.4251 19.9798ZM21.7192 15.0041C21.7192 15.0041 20.8367 15.3377 19.7944 15.9217C18.7047 16.5322 17.4402 17.4164 16.8269 18.4792C16.124 19.697 16.5235 21.2442 17.7192 21.9348C18.915 22.6254 20.4541 22.1979 21.157 20.9801C21.7159 20.0116 21.8441 18.4225 21.8392 17.1264C21.8347 15.9432 21.7192 15.0041 21.7192 15.0041ZM12.8223 20.9975C12.6543 21.2885 12.3258 21.3414 12.1161 21.2203C11.9064 21.0992 11.788 20.7882 11.9559 20.4971C12.17 20.1261 12.6126 19.7073 13.1966 19.2941C13.178 19.5268 13.1522 19.7533 13.1181 19.9682C13.0325 20.5071 12.9142 20.8381 12.8223 20.9975ZM15.1164 16.0218C15.1164 16.0218 14.2339 16.3554 13.1916 16.9394C12.1018 17.5499 10.8374 18.4341 10.224 19.4969C9.52113 20.7147 9.92065 22.2619 11.1164 22.9525C12.3121 23.6431 13.8513 23.2156 14.5541 21.9978C15.1131 21.0293 15.2413 19.4402 15.2363 18.1441C15.2318 16.9609 15.1164 16.0218 15.1164 16.0218ZM20.9732 26.3356C21.1829 26.4567 21.5113 26.4038 21.6793 26.1128C21.7713 25.9534 21.8895 25.6224 21.9752 25.0835C22.0093 24.8687 22.0351 24.6421 22.0537 24.4094C21.4696 24.8226 21.0271 25.2415 20.813 25.6125C20.645 25.9035 20.7635 26.2145 20.9732 26.3356ZM22.0486 22.0547C23.0909 21.4707 23.9734 21.1371 23.9734 21.1371C23.9734 21.1371 24.0889 22.0762 24.0934 23.2594C24.0983 24.5556 23.9701 26.1446 23.4112 27.1131C22.7083 28.331 21.1692 28.7584 19.9734 28.0678C18.7777 27.3772 18.3782 25.8301 19.0811 24.6122C19.6944 23.5494 20.9589 22.6653 22.0486 22.0547ZM14.961 27.7147C14.793 28.0057 14.4645 28.0586 14.2549 27.9375C14.0452 27.8164 13.9267 27.5054 14.0947 27.2144C14.3088 26.8433 14.7513 26.4245 15.3354 26.0113C15.3167 26.244 15.291 26.4706 15.2568 26.6854C15.1712 27.2243 15.053 27.5553 14.961 27.7147ZM17.2551 22.739C17.2551 22.739 16.3726 23.0726 15.3303 23.6566C14.2406 24.2671 12.9761 25.1513 12.3628 26.2141C11.6599 27.432 12.0594 28.9791 13.2551 29.6697C14.4509 30.3603 15.99 29.9329 16.6929 28.715C17.2518 27.7465 17.38 26.1574 17.3751 24.8613C17.3706 23.6781 17.2551 22.739 17.2551 22.739Z" fill="white"/>
</svg>
